<svg viewBox="0 0 16 16">
  <path d="M 7.5 1.03125 L 5.308594 3 L 2.5 3 C 1.675781 3 1 3.675781 1 4.5 L
    1 12.5 C 1 13.324219 1.675781 14 2.5 14 L 12.5 14 C 13.324219 14 14
    13.324219 14 12.5 L 14 4.5 C 14 3.675781 13.324219 3 12.5 3 L 9.691406 3 Z
    M 7.5 2.375 L 9.308594 4 L 12.5 4 C 12.78125 4 13 4.21875 13 4.5 L 13 12.5
    C 13 12.78125 12.78125 13 12.5 13 L 2.5 13 C 2.21875 13 2 12.78125 2 12.5
    L 2 4.5 C 2 4.21875 2.21875 4 2.5 4 L 5.691406 4 Z M 4 6 L 4 7 L 5 7 L 5 6
    Z M 6 6 L 6 7 L 11 7 L 11 6 Z M 4 8 L 4 9 L 5 9 L 5 8 Z M 6 8 L 6 9 L 11 9
    L 11 8 Z M 4 10 L 4 11 L 5 11 L 5 10 Z M 6 10 L 6 11 L 11 11 L 11 10 Z"
  />
</svg>
