<svg viewBox="0 0 16 16">
  <path d="M 4.5 2 C 3.675781 2 3 2.675781 3 3.5 L 3 12.5 C 3 13.324219
    3.675781 14 4.5 14 L 9 14 L 9 13 L 4.5 13 C 4.21875 13 4 12.78125 4 12.5 L
    4 3.5 C 4 3.21875 4.21875 3 4.5 3 L 11.5 3 C 11.78125 3 12 3.21875 12 3.5
    L 12 9 L 13 9 L 13 3.5 C 13 2.675781 12.324219 2 11.5 2 Z M 7 4 C 6.449219
    4 6 4.449219 6 5 C 6 5.550781 6.449219 6 7 6 C 7.550781 6 8 5.550781 8 5 C
    8 4.449219 7.550781 4 7 4 Z M 7 6 C 5.898438 6 5 6.898438 5 8 L 9 8 C 9
    6.898438 8.101563 6 7 6 Z M 10 5 L 10 6 L 11 6 L 11 5 Z M 10 7 L 10 8 L 11
    8 L 11 7 Z M 5 9 L 5 10 L 11 10 L 11 9 Z M 12 10 L 12 13 L 10 13 L 12.5
    15.5 L 15 13 L 13 13 L 13 10 Z M 5 11 L 5 12 L 11 12 L 11 11 Z"
  />
</svg>
