<svg viewBox="0 0 1024 1024">
  <path d="M512,66.7L846,512L512,957.3L178,512L512,66.7 M512,0L128,512l384,
    512l384-512L512,0L512,0z"
  />
  <path d="M517.6,538.7l-7.3-13.9c0,0,0,0,0,0l-9.3-17.9h-37.7H462c0,0-13.2,
    0-20.2,0h-17.1v32.3v155.1c0,4.8,2.4,7.2,7.2,7.2h23,c4.8,0,7.2-2.4,
    7.2-7.2V539.1h18.2c-0.7-1.5-1.4-2.8-2.1-4.1c-4.9,1.1-9.6,1.9-14,
    2.4c4.4-0.5,9.1-1.3,14-2.4c0,0,0,0,0.1,0,c0.6,1.3,1.3,2.6,2,4l0,0.1h0c3.6,
    7.2,8.4,16.5,14.3,28.2c5.8,12,13.8,28.1,24.1,48.4c10.2,20.3,23,46.5,38.4,
    78.6,c2.4,4.8,6.1,7.2,11.3,7.2h26.6c2,0,3.4-0.8,4.1-2.3c0.7-1.5,0.7-3.2,
    0-4.9L517.6,538.7z M458.8,538c0.5,0,1-0.1,1.6-0.1,C459.9,537.9,459.3,
    537.9,458.8,538z M461.4,537.7c0.7-0.1,1.5-0.2,2.2-0.2C462.9,537.6,462.1,
    537.7,461.4,537.7z"
  />
  <path d="M673,694.7l-51.8-99.3l-36.9-70.6c0,0,0,0,0,0c8.5-4.1,16.8-9.3,
    24.8-15.6c8-6.3,15.1-13.4,21.2-21.2,c6.1-7.8,11-16.4,14.6-25.6c3.6-9.2,
    5.4-18.9,5.4-29.2c0-16.7-2.3-31.9-6.9-45.6c-4.6-13.6-11.6-25.3-21-34.8,
    c-9.4-9.6-21.2-17-35.3-22.3c-14.2-5.3-31-7.9-50.4-7.9h-74h-22.8h-74c-3.8,
    0-6.7,0.1-8.7,0.3c-2,0.2-3.6,0.8-4.6,1.8,c-1,1-1.6,2.6-1.8,4.6c-0.2,2-0.3,
    5-0.3,8.7v356.4c0,4.8,2.4,7.2,7.2,7.2h23c4.8,0,7.2-2.4,
    7.2-7.2V539.1h0v-32.3h0V354.3h36.6,h16.1c7.6,0,21.3,0,21.3,0h52.7c14.4,0,
    26.8,0.8,37.5,2.5c3,0.5,5.9,1,8.6,1.6c12.3,2.7,22.3,7.3,30,13.6,c7.7,6.3,
    13.1,14.5,16.4,24.6c3.2,10.1,4.9,22.3,4.9,36.6c0,11.3-2.4,21.4-7.2,
    30.5c-4.8,9-11.4,16.8-20,23.3,c-4.7,3.5-9.8,6.6-15.4,9.2c-4.7,2.2-9.7,
    4.1-15,5.6c-4.5,1.3-9.2,2.4-14.1,3.2c-1.2,0.2-2.4,0.4-3.6,0.5l0.9,
    1.7L638.7,701,c1.1,0.3,2.2,0.4,3.5,0.4h26.6c2,0,3.4-0.8,4.1-2.3C673.5,
    697.7,673.6,696.2,673,694.7z"
  />
</svg>
