<?xml version="1.0" encoding="utf-8"?>
<!-- Generator: Adobe Illustrator 25.2.3, SVG Export Plug-In . SVG Version: 6.00 Build 0)  -->
<svg version="1.1" id="Layer_1" xmlns="http://www.w3.org/2000/svg" xmlns:xlink="http://www.w3.org/1999/xlink" x="0px" y="0px"
	 viewBox="0 0 1024 1024" style="enable-background:new 0 0 1024 1024;" xml:space="preserve">
<g>
	<path d="M512,66.666664L846,512L512,957.333313L178,512L512,66.666664 M512,0L128,512l384,512l384-512L512,0L512,0z"/>
</g>
<g>
	<path d="M517.584778,538.682251l-7.255676-13.882202c0.012512-0.006042,0.024963-0.012634,0.037476-0.018677l-9.343567-17.901245
		h-37.730713h-1.33136c0,0-13.214111,0-20.239746,0h-17.13623v32.255859v155.13623c0,4.775879,2.384277,7.167969,7.167969,7.167969
		h23.040039c4.776367,0,7.167969-2.39209,7.167969-7.167969v-155.13623h18.16626
		c-0.732178-1.4552-1.419617-2.825745-2.053955-4.095703c-4.918457,1.071777-9.598389,1.873657-14.04425,2.406128
		c4.423401-0.529968,9.078735-1.327026,13.969666-2.390564c0.025085-0.005432,0.0495-0.010071,0.074585-0.015564
		c0.626038,1.253357,1.304749,2.606323,2.026123,4.040283l0.028931,0.05542h-0.001099
		c3.598389,7.152161,8.373718,16.533569,14.329834,28.160156c5.800293,11.952148,13.824219,28.080078,24.063965,48.383789
		c10.240234,20.312012,23.040039,46.512207,38.400391,78.592285c2.383789,4.775879,6.143555,7.167969,11.263672,7.167969h26.624023
		c2.047852,0,3.408203-0.768066,4.096191-2.304199c0.679688-1.536133,0.679688-3.160156,0-4.86377L517.584778,538.682251z
		 M458.830444,537.954285c0.515869-0.038513,1.041748-0.088562,1.564453-0.13501
		C459.872192,537.865662,459.346375,537.915833,458.830444,537.954285z M461.404175,537.732117
		c0.722961-0.070679,1.456238-0.153015,2.192078-0.238586C462.860413,537.579041,462.127136,537.661499,461.404175,537.732117z"/>
	<path d="M673.049194,694.682007l-51.826965-99.294617l-36.893127-70.587341c0.013245-0.006348,0.026428-0.013428,0.039673-0.019775
		c8.513855-4.093384,16.780945-9.28595,24.792358-15.596436c8.016113-6.311523,15.104004-13.391602,21.248047-21.247559
		c6.144043-7.848145,11.007812-16.384277,14.591797-25.600098c3.583984-9.216309,5.375977-18.944336,5.375977-29.184082
		c0-16.720215-2.303711-31.912109-6.911621-45.567871c-4.608398-13.647949-11.608398-25.256348-20.992188-34.816406
		c-9.39209-9.551758-21.167969-16.975586-35.328125-22.271973c-14.167969-5.287598-30.976074-7.936035-50.431641-7.936035h-74
		h-22.768066h-74c-3.760254,0-6.65625,0.088379-8.704102,0.256348c-2.047852,0.175781-3.583984,0.768066-4.60791,1.791992
		c-1.024414,1.023926-1.624023,2.560059-1.791992,4.60791c-0.17627,2.047852-0.256348,4.952148-0.256348,8.704102v356.352051
		c0,4.775879,2.384277,7.167969,7.167969,7.167969h23.040039c4.776367,0,7.167969-2.39209,7.167969-7.167969v-155.13623H388
		v-32.255859h-0.039062V354.303955h36.624023h16.112305c7.61499,0,21.263672,0,21.263672,0h52.736328
		c14.354858,0,26.83783,0.833862,37.466431,2.489624c3.018494,0.470276,5.895691,1.003174,8.613647,1.606567
		c12.287598,2.73584,22.271973,7.255859,29.95166,13.567871c7.680176,6.319824,13.13623,14.512207,16.384277,24.576172
		c3.239746,10.071777,4.86377,22.271973,4.86377,36.60791c0,11.26416-2.39209,21.423828-7.167969,30.463867
		c-4.78418,9.04834-11.439941,16.815918-19.967773,23.295898c-4.654297,3.53772-9.806519,6.602112-15.422974,9.225098
		c-4.684265,2.187683-9.686096,4.073364-15.041382,5.623047c-4.539001,1.316711-9.247253,2.372925-14.116211,3.181396
		c-1.191467,0.197815-2.396057,0.375305-3.607117,0.542969l0.913086,1.749451l101.143372,193.779358
		c1.079712,0.280212,2.235596,0.427002,3.474976,0.427002h26.624023c2.047852,0,3.408203-0.768066,4.096191-2.304199
		C673.530151,697.723755,673.573303,696.236389,673.049194,694.682007z"/>
</g>
</svg>
